<svg width="20" height="20" viewBox="0 0 20 20" fill="none" xmlns="http://www.w3.org/2000/svg">
<path fill-rule="evenodd" clip-rule="evenodd" d="M9.53734 5.19604L9.46968 5.26371C7.70071 3.49473 4.83263 3.49473 3.06366 5.2637C1.29468 7.03268 1.29468 9.90075 3.06366 11.6697L6.79698 15.403C8.56596 17.172 11.434 17.172 13.203 15.403L16.9363 11.6697C18.7053 9.90073 18.7053 7.03266 16.9363 5.26368C15.1674 3.49471 12.2993 3.49471 10.5303 5.26368L10.0677 5.72635L9.53734 5.19604ZM14.2637 16.4637L17.997 12.7304C20.3518 10.3756 20.3518 6.55778 17.997 4.20302C15.8118 2.01781 12.3666 1.86047 9.99999 3.73099C7.63334 1.86049 4.1882 2.01785 2.003 4.20304C-0.351762 6.5578 -0.351764 10.3756 2.003 12.7304L5.73632 16.4637L5.73634 16.4637C8.0911 18.8185 11.9089 18.8185 14.2637 16.4637L14.2637 16.4637Z" fill="#2D3132"/>
</svg>
